<svg width="60" height="60" viewBox="0 0 60 60" fill="none" xmlns="http://www.w3.org/2000/svg">
<path d="M39.5507 49.7293C39.1489 50.131 38.6039 50.3567 38.0357 50.3567C37.4675 50.3567 36.9226 50.131 36.5207 49.7293L17.7707 30.9793C17.369 30.5774 17.1433 30.0325 17.1433 29.4643C17.1433 28.8961 17.369 28.3511 17.7707 27.9493L36.5207 9.19929C36.7184 8.99463 36.9548 8.83138 37.2163 8.71908C37.4777 8.60677 37.7589 8.54766 38.0434 8.54519C38.3279 8.54271 38.6101 8.59693 38.8735 8.70468C39.1368 8.81242 39.3761 8.97153 39.5773 9.17273C39.7785 9.37393 39.9376 9.61319 40.0453 9.87654C40.1531 10.1399 40.2073 10.4221 40.2048 10.7066C40.2023 10.9911 40.1432 11.2723 40.0309 11.5337C39.9186 11.7952 39.7554 12.0316 39.5507 12.2293L22.3157 29.4643L39.5507 46.6993C39.9524 47.1011 40.1781 47.6461 40.1781 48.2143C40.1781 48.7825 39.9524 49.3274 39.5507 49.7293Z" fill="black"/>
</svg>
