<svg width="24" height="24" viewBox="0 0 24 24" fill="none" xmlns="http://www.w3.org/2000/svg">
<path d="M9.75006 2.25C13.8841 2.25 17.2501 5.616 17.2501 9.75C17.2501 11.5462 16.6201 13.1925 15.5626 14.4847L21.5393 20.46L20.4601 21.54L14.4841 15.5632C13.1494 16.6574 11.4759 17.2537 9.75006 17.25C5.61606 17.25 2.25006 13.884 2.25006 9.75C2.25006 5.616 5.61606 2.25 9.75006 2.25ZM9.75006 3.75C6.42756 3.75 3.75006 6.4275 3.75006 9.75C3.75006 13.0725 6.42756 15.75 9.75006 15.75C13.0726 15.75 15.7501 13.0725 15.7501 9.75C15.7501 6.4275 13.0726 3.75 9.75006 3.75Z" fill="#1A1A1A"/>
</svg>
